<svg width="126" height="126" viewBox="0 0 126 126" fill="none" xmlns="http://www.w3.org/2000/svg">
<path d="M63 73.5C71.715 73.5 78.6975 66.465 78.6975 57.75L78.75 26.25C78.75 17.535 71.715 10.5 63 10.5C54.285 10.5 47.25 17.535 47.25 26.25V57.75C47.25 66.465 54.285 73.5 63 73.5ZM90.825 57.75C90.825 73.5 77.49 84.525 63 84.525C48.51 84.525 35.175 73.5 35.175 57.75H26.25C26.25 75.6525 40.53 90.4575 57.75 93.03V110.25H68.25V93.03C85.47 90.51 99.75 75.705 99.75 57.75H90.825Z" fill="white"/>
</svg>
